<svg width="34" height="26" viewBox="0 0 34 26" fill="none" xmlns="http://www.w3.org/2000/svg">
<path d="M29 4.00028C26.2355 1.75886 21.1872 1.01395 21 1.00028C20.7097 0.975682 21.1193 0.729672 21 1.00028C20.9891 1.01668 20.1058 1.65587 20 2.00028C21.8285 2.3119 23.968 2.72923 26 4.00028C26.3255 4.20256 27.2007 4.67227 27 5.00028C26.867 5.21623 26.2333 6.00028 26 6.00028C25.8752 6.00028 26.1139 5.07135 26 5.00028C22.5058 2.81626 17.841 3.00028 17 3.00028C16.159 3.00028 11.4915 2.81626 7.99998 5.00028C7.67443 5.20529 7.20073 5.3283 6.99998 5.00028C6.79651 4.66954 7.67443 4.20529 7.99998 4.00028C10.0319 2.73197 12.1715 2.30916 14 2.00028C13.8942 1.65314 13.0081 1.01942 13 1.00028C12.8779 0.729672 13.293 0.970216 13 1.00028C12.8128 1.01395 7.80239 1.72879 4.99998 4.00028C3.53773 5.36427 0.999976 13.1093 0.999976 20.0003C0.999976 20.1233 0.940292 19.8937 0.999976 20.0003C3.01836 23.5756 8.74391 24.9593 9.99998 25.0003C10.0054 25.0003 9.99184 25.0003 9.99998 25.0003C10.2224 25.0003 9.86976 25.1807 9.99998 25.0003L12 23.0003C8.5736 22.1092 6.10035 20.0905 5.99998 20.0003C5.71241 19.7461 5.74496 19.29 5.99998 19.0003C6.25227 18.7105 6.71241 18.7461 6.99998 19.0003C7.04067 19.0385 10.6627 22.0003 17 22.0003C23.3481 22.0003 26.9674 19.0276 27 19.0003C27.2875 18.7488 27.745 18.7078 28 19.0003C28.2523 19.29 28.2875 19.7461 28 20.0003C27.8996 20.0905 25.4264 22.1092 22 23.0003L24 25.0003C24.1302 25.1807 23.7775 25.0003 24 25.0003C24.0081 25.0003 23.9946 25.0003 24 25.0003C25.256 24.9593 30.9816 23.5756 33 20.0003C33.0597 19.8937 33 20.1233 33 20.0003C33 13.1093 30.5002 5.39434 29 4.00028ZM12 17.0003C10.6571 17.0003 9.99998 15.5474 9.99998 14.0003C9.99998 12.4532 10.6571 12.0003 12 12.0003C13.3429 12.0003 15 12.4532 15 14.0003C15 15.5474 13.3429 17.0003 12 17.0003ZM22 17.0003C20.6571 17.0003 19 15.5474 19 14.0003C19 12.4532 20.6571 12.0003 22 12.0003C23.3429 12.0003 24 12.4532 24 14.0003C24 15.5474 23.3429 17.0003 22 17.0003Z" fill="white"/>
</svg>
