<svg width="24" height="24" viewBox="0 0 24 24" fill="none" xmlns="http://www.w3.org/2000/svg">
<path d="M18 0H6C2.41773 0 0 2.41773 0 6V18C0 21.5821 2.41773 24 6 24H18C21.5821 24 24 21.5821 24 18V6C24 2.41773 21.5823 0 18 0ZM12 19C8.38148 19 5 15.6185 5 12C5 8.38148 8.38148 5 12 5C15.6185 5 19 8.38148 19 12C19 15.6185 15.6185 19 12 19ZM19 7C17.9307 7 17 6.06933 17 5C17 3.93067 17.9307 3 19 3C20.0693 3 21 3.93067 21 5C21 6.06933 20.0693 7 19 7Z" fill="white"/>
<path d="M12 7C9.24312 7 7 9.24294 7 12C7 14.7569 9.24312 17 12 17C14.7571 17 17 14.7569 17 12C17 9.24294 14.7571 7 12 7Z" fill="white"/>
</svg>
