<svg width="186" height="20" viewBox="0 0 186 20" fill="none" xmlns="http://www.w3.org/2000/svg">
<g clip-path="url(#clip0_2_492)">
<path d="M19 5.05469V9.05469C19 10.0034 18.6853 11.3723 18 12.0547C17.3148 12.7371 16.9694 13.0547 16 13.0547H15L19 18.0547V19.0547H15L10 13.0547H4V19.0547H1V1.05469H16C16.9694 1.05469 17.3148 1.3723 18 2.05469C18.6853 2.73708 19 4.106 19 5.05469ZM4 10.0547H16C16.117 10.0547 16 9.1712 16 9.05469V5.05469C16 4.93819 16.117 4.05469 16 4.05469H4C3.88301 4.05469 4 4.93819 4 5.05469V9.05469C4 9.1712 3.88301 10.0547 4 10.0547ZM39 1.05469H43V19.0547H39V12.0547H28V19.0547H24V1.05469H28V8.05469H39V1.05469ZM65 1.05469V4.05469H51V8.05469H62V12.0547H51V16.0547H65V19.0547H48V1.05469H65ZM70 19.0547V1.05469H73V16.0547H88V19.0547H70ZM108 1.05469V4.05469H95V8.05469H106V12.0547H95V16.0547H108V19.0547H92V1.05469H108ZM132 4.05469V6.05469H128V4.05469C128 3.93819 128.117 4.05469 128 4.05469H117C116.884 4.05469 117 3.93819 117 4.05469V16.0547C117 16.1712 116.884 16.0547 117 16.0547H128C128.117 16.0547 128 16.1712 128 16.0547V12.0547H124V9.05469H132V16.0547C132 17.02 131.686 17.3723 131 18.0547C130.315 18.7205 128.97 19.0547 128 19.0547H117C116.031 19.0547 114.686 18.7205 114 18.0547C113.332 17.3723 113 17.02 113 16.0547V4.05469C113 3.08937 113.332 2.72043 114 2.05469C114.686 1.3723 116.031 1.05469 117 1.05469H128C128.97 1.05469 130.315 1.3723 131 2.05469C131.686 2.72043 132 3.08937 132 4.05469ZM151 16.0547V1.05469H155V16.0547C155 17.02 154.686 17.3723 154 18.0547C153.315 18.7205 151.953 19.0547 151 19.0547H140C139.031 19.0547 138.686 18.7205 138 18.0547C137.332 17.3723 137 17.02 137 16.0547V1.05469H140V16.0547C140 16.1712 139.884 16.0547 140 16.0547H151C151 16.1712 151.1 16.0547 151 16.0547ZM178 4.05469V6.05469H175V4.05469C175 3.93819 175.1 4.05469 175 4.05469H163C162.883 4.05469 163 3.93819 163 4.05469V8.05469C163 8.1712 162.883 8.05469 163 8.05469H175C175.953 8.05469 176.314 8.3723 177 9.05469C177.685 9.72043 178 11.0894 178 12.0547V16.0547C178 17.02 177.685 17.3723 177 18.0547C176.314 18.7205 175.953 19.0547 175 19.0547H163C162.03 19.0547 161.685 18.7205 161 18.0547C160.331 17.3723 160 17.02 160 16.0547V14.0547H163V16.0547C163 16.1712 162.883 16.0547 163 16.0547H175C175.1 16.0547 175 16.1712 175 16.0547V12.0547C175 11.9382 175.1 12.0547 175 12.0547H163C162.03 12.0547 161.685 11.7205 161 11.0547C160.331 10.3723 160 9.02002 160 8.05469V4.05469C160 3.08937 160.331 2.72043 161 2.05469C161.685 1.3723 162.03 1.05469 163 1.05469H175C175.953 1.05469 176.314 1.3723 177 2.05469C177.685 2.72043 178 3.08937 178 4.05469Z" fill="white"/>
<path d="M185 16.0547V19.0547H182V16.0547H185Z" fill="#9054FF"/>
</g>
<defs>
<clipPath id="clip0_2_492">
<rect width="186" height="19" fill="white" transform="translate(0 0.0546875)"/>
</clipPath>
</defs>
</svg>
