<svg width="31" height="24" viewBox="0 0 31 24" fill="none" xmlns="http://www.w3.org/2000/svg">
<path d="M30.2273 3.27273C29.1319 3.75457 28.1714 3.11765 26.9545 3.27273C28.2063 2.52319 28.6872 1.41969 29.1363 0C27.9692 0.697846 27.2369 1.90674 25.8636 2.18182C24.7554 0.998434 23.2231 0 21.5 0C18.1569 0 14.9545 3.20945 14.9545 6.54545C14.9545 7.02545 14.8551 7.19698 14.9545 7.63636C9.93436 7.39083 5.93864 4.7666 2.95452 1.09091C2.43355 1.99737 1.86361 3.24671 1.86361 4.36364C1.86361 6.46087 3.53107 7.65097 5.13634 8.72727C4.16618 8.70881 2.66993 9.1722 1.86361 8.72727C1.86361 8.74573 1.86361 8.70327 1.86361 8.72727C1.86361 11.67 4.57336 13.6187 7.31816 14.1818C6.82664 14.3166 5.6923 14.1818 5.13634 14.1818C4.74975 14.1818 4.41177 14.263 4.04543 14.1818C4.82782 16.58 6.86011 18.4882 9.49998 18.5455C7.44552 20.1571 4.68757 21.8182 1.86361 21.8182C1.36841 21.8182 1.24766 21.8791 0.772705 21.8182C3.44755 23.548 6.08141 24 9.49998 24C20.6117 24 26.9545 14.5467 26.9545 6.54545C26.9545 6.27776 26.9674 5.71116 26.9545 5.45455C28.153 4.60162 29.4062 4.49857 30.2273 3.27273Z" fill="white"/>
</svg>
