<svg width="125" height="125" viewBox="0 0 125 125" fill="none" xmlns="http://www.w3.org/2000/svg">
<path d="M124.608 63.6143L124.341 66.7379C124.272 67.549 124.046 68.2511 123.664 68.8444C123.289 69.4382 122.795 69.8821 122.181 70.1761C121.575 70.4707 120.899 70.5864 120.153 70.5233C119.408 70.4603 118.758 70.2323 118.202 69.8394C117.655 69.4472 117.243 68.9266 116.967 68.2777C116.699 67.6294 116.599 66.8998 116.668 66.0887L116.935 62.9651L124.608 63.6143ZM117.374 66.1042C117.316 66.7765 117.397 67.3758 117.617 67.9022C117.845 68.4292 118.18 68.8514 118.624 69.1686C119.075 69.4864 119.608 69.6713 120.222 69.7233C120.835 69.7752 121.388 69.6821 121.88 69.444C122.378 69.2066 122.781 68.8469 123.087 68.365C123.4 67.8837 123.586 67.307 123.643 66.6347L123.837 64.366L117.568 63.8355L117.374 66.1042Z" fill="white"/>
<path d="M123.499 74.2571L123.333 75.0541L115.791 73.5038L115.956 72.7068L123.499 74.2571Z" fill="white"/>
<path d="M114.384 77.7459C114.553 77.1995 114.803 76.7009 115.134 76.2502C115.464 75.8066 115.814 75.4921 116.186 75.307L116.692 75.7954C116.343 75.98 116.016 76.2671 115.711 76.6569C115.413 77.0489 115.191 77.4795 115.046 77.9489C114.842 78.6074 114.809 79.1378 114.945 79.5401C115.089 79.9445 115.353 80.2058 115.739 80.3239C116.033 80.4141 116.296 80.395 116.528 80.2666C116.758 80.1452 116.958 79.9688 117.129 79.7375C117.308 79.5084 117.525 79.1798 117.78 78.7518C118.092 78.2414 118.361 77.8408 118.589 77.5502C118.825 77.2618 119.112 77.0393 119.452 76.8827C119.79 76.7332 120.187 76.7282 120.643 76.8678C121.015 76.9817 121.321 77.1828 121.562 77.4714C121.81 77.762 121.962 78.1384 122.018 78.6006C122.075 79.0627 122.01 79.5951 121.823 80.1975C121.693 80.6178 121.507 81.0094 121.264 81.3722C121.026 81.7441 120.76 82.0461 120.465 82.278L119.926 81.8252C120.225 81.5793 120.478 81.2962 120.684 80.976C120.898 80.658 121.057 80.3308 121.161 79.9945C121.36 79.35 121.385 78.8245 121.234 78.4179C121.089 78.0205 120.819 77.7616 120.427 77.6414C120.132 77.5511 119.867 77.5657 119.63 77.685C119.399 77.8134 119.192 77.9957 119.012 78.2318C118.836 78.4771 118.622 78.8103 118.369 79.2312C118.068 79.7299 117.801 80.1234 117.566 80.4118C117.335 80.7094 117.051 80.933 116.713 81.0826C116.382 81.2343 115.992 81.2414 115.544 81.1039C115.172 80.9901 114.863 80.7843 114.618 80.4867C114.377 80.1981 114.229 79.8193 114.175 79.3501C114.128 78.8831 114.197 78.3484 114.384 77.7459Z" fill="white"/>
<path d="M111.924 85.4177C112.243 84.725 112.685 84.169 113.25 83.7496C113.812 83.3369 114.436 83.0939 115.124 83.0208C115.815 82.9574 116.498 83.0794 117.172 83.3868C117.846 83.6942 118.381 84.1277 118.777 84.6872C119.177 85.2565 119.401 85.8909 119.45 86.5903C119.499 87.2897 119.364 87.9858 119.045 88.6784C118.805 89.1978 118.497 89.6378 118.121 89.9982C117.745 90.3586 117.32 90.6159 116.845 90.7701L116.591 90.086C117.397 89.7925 117.991 89.2295 118.375 88.397C118.63 87.8443 118.735 87.2836 118.69 86.7151C118.645 86.1466 118.463 85.632 118.142 85.1714C117.818 84.7174 117.383 84.3656 116.836 84.116C116.289 83.8664 115.737 83.7677 115.18 83.8199C114.62 83.8788 114.108 84.0768 113.646 84.414C113.184 84.7512 112.825 85.1962 112.57 85.749C112.184 86.5881 112.146 87.4052 112.458 88.2003L111.771 88.4553C111.579 87.9967 111.495 87.5033 111.521 86.9749C111.55 86.4562 111.684 85.9371 111.924 85.4177Z" fill="white"/>
<path d="M108.041 91.6789C108.464 91.0441 108.988 90.56 109.616 90.2268C110.245 89.9037 110.905 89.759 111.596 89.7928C112.283 89.8328 112.936 90.0565 113.554 90.464C114.173 90.8715 114.634 91.3821 114.939 91.9959C115.24 92.6157 115.361 93.2748 115.301 93.9731C115.244 94.6816 115.004 95.3533 114.581 95.9881C114.158 96.623 113.637 97.1009 113.018 97.422C112.395 97.7491 111.735 97.8938 111.038 97.8559C110.347 97.8221 109.692 97.6014 109.074 97.1939C108.455 96.7864 107.992 96.2707 107.685 95.6468C107.384 95.027 107.264 94.3679 107.323 93.6695C107.379 92.9773 107.618 92.3138 108.041 91.6789ZM108.647 92.0784C108.31 92.585 108.118 93.1175 108.073 93.6757C108.033 94.2381 108.138 94.7683 108.388 95.2666C108.644 95.7689 109.023 96.1855 109.525 96.5163C110.027 96.8472 110.557 97.0298 111.116 97.0641C111.681 97.1025 112.212 96.9918 112.711 96.7321C113.216 96.4765 113.637 96.0953 113.975 95.5887C114.312 95.082 114.502 94.5445 114.546 93.9761C114.592 93.4178 114.489 92.8845 114.237 92.3761C113.987 91.8778 113.611 91.4633 113.109 91.1324C112.607 90.8016 112.074 90.6169 111.509 90.5786C110.946 90.5503 110.412 90.664 109.907 90.9197C109.405 91.1855 108.984 91.5717 108.647 92.0784Z" fill="white"/>
<path d="M101.205 100.37L104.226 100.743C104.344 100.582 104.475 100.424 104.619 100.267L106.02 98.7465L104.216 97.1013L104.767 96.5026L110.457 101.69L108.505 103.81C107.839 104.533 107.144 104.941 106.419 105.035C105.695 105.128 105.029 104.898 104.422 104.345C103.978 103.94 103.706 103.483 103.605 102.975C103.506 102.477 103.579 101.959 103.826 101.42L100.601 101.025L101.205 100.37ZM105.146 100.718C104.629 101.279 104.359 101.822 104.335 102.345C104.311 102.869 104.524 103.336 104.974 103.746C105.434 104.166 105.923 104.339 106.44 104.265C106.963 104.195 107.483 103.88 107.999 103.319L109.386 101.815L106.532 99.2133L105.146 100.718Z" fill="white"/>
<path d="M104.583 108.267L102.133 110.223C101.497 110.731 100.831 111.051 100.137 111.183C99.4472 111.321 98.7835 111.269 98.1458 111.028C97.5127 110.792 96.9613 110.383 96.4917 109.801C96.022 109.219 95.7377 108.592 95.6387 107.92C95.5442 107.254 95.637 106.598 95.9169 105.952C96.2014 105.312 96.6617 104.738 97.2979 104.23L99.7478 102.274L104.583 108.267ZM97.7743 104.751C97.2471 105.172 96.8686 105.643 96.6389 106.164C96.4139 106.691 96.3398 107.224 96.4167 107.763C96.4983 108.308 96.7324 108.82 97.1192 109.3C97.506 109.779 97.9556 110.115 98.4681 110.306C98.9851 110.503 99.5242 110.547 100.085 110.436C100.651 110.332 101.198 110.069 101.725 109.648L103.504 108.227L99.5537 103.33L97.7743 104.751Z" fill="white"/>
<path d="M89.9509 117.584L87.0613 118.8C86.311 119.116 85.584 119.243 84.8804 119.181C84.1796 119.126 83.5555 118.895 83.0083 118.489C82.464 118.089 82.0454 117.545 81.7528 116.857C81.4601 116.169 81.3578 115.488 81.446 114.814C81.537 114.147 81.8052 113.541 82.2506 112.996C82.6989 112.457 83.2982 112.03 84.0485 111.714L86.9381 110.498L89.9509 117.584ZM84.3645 112.345C83.7427 112.607 83.2502 112.957 82.8871 113.396C82.5268 113.842 82.3101 114.335 82.2369 114.875C82.1666 115.422 82.2519 115.979 82.4929 116.546C82.7339 117.112 83.0747 117.558 83.5152 117.882C83.9585 118.212 84.4651 118.401 85.0348 118.448C85.6073 118.501 86.2045 118.397 86.8264 118.135L88.9251 117.252L86.4633 111.462L84.3645 112.345Z" fill="white"/>
<path d="M80.1698 121.318L79.3864 121.539L77.2779 114.134L78.0613 113.913L80.1698 121.318Z" fill="white"/>
<path d="M71.8648 114.889C72.4275 114.786 72.9852 114.778 73.5378 114.864C74.0832 114.951 74.5238 115.117 74.8595 115.361L74.659 116.035C74.3345 115.811 73.929 115.653 73.4427 115.563C72.9576 115.48 72.4734 115.482 71.99 115.57C71.3118 115.693 70.8257 115.909 70.5317 116.215C70.2389 116.53 70.129 116.885 70.2019 117.282C70.2576 117.585 70.3958 117.809 70.6165 117.955C70.83 118.103 71.0789 118.199 71.3631 118.244C71.6486 118.297 72.04 118.337 72.5374 118.366C73.1339 118.407 73.6137 118.461 73.9766 118.529C74.3409 118.605 74.6709 118.757 74.9666 118.987C75.255 119.217 75.4423 119.567 75.5285 120.036C75.5987 120.418 75.5614 120.783 75.4163 121.13C75.2726 121.484 75.0088 121.793 74.6248 122.056C74.2408 122.32 73.7385 122.508 73.118 122.621C72.6851 122.7 72.2518 122.715 71.818 122.667C71.3783 122.628 70.9878 122.531 70.6463 122.377L70.7995 121.69C71.1554 121.841 71.523 121.935 71.9024 121.97C72.283 122.013 72.6465 122.002 72.9928 121.939C73.6566 121.819 74.1341 121.598 74.4255 121.276C74.711 120.964 74.8167 120.605 74.7424 120.201C74.6868 119.898 74.5515 119.67 74.3367 119.515C74.1159 119.369 73.8592 119.27 73.5665 119.219C73.2679 119.176 72.8735 119.14 72.3833 119.11C71.8026 119.074 71.33 119.018 70.9658 118.943C70.5956 118.876 70.2663 118.727 69.9778 118.496C69.6907 118.273 69.5047 117.93 69.4198 117.469C69.3496 117.086 69.3899 116.718 69.5408 116.362C69.6859 116.015 69.954 115.709 70.3452 115.444C70.7378 115.187 71.2443 115.001 71.8648 114.889Z" fill="white"/>
<path d="M64.869 116.368C65.6305 116.327 66.328 116.459 66.9614 116.762C67.5875 117.067 68.0925 117.506 68.4762 118.08C68.853 118.662 69.0615 119.323 69.1017 120.062C69.1419 120.802 69.006 121.477 68.6941 122.089C68.3752 122.708 67.9174 123.203 67.3206 123.573C66.7238 123.943 66.0446 124.148 65.2831 124.189C64.7119 124.22 64.1795 124.153 63.6858 123.989C63.1922 123.824 62.767 123.568 62.4102 123.22L62.8984 122.676C63.5319 123.252 64.3063 123.515 65.2217 123.465C65.8295 123.433 66.3748 123.264 66.8576 122.959C67.3404 122.654 67.7115 122.252 67.9708 121.753C68.2228 121.255 68.3325 120.706 68.2999 120.105C68.2672 119.505 68.0986 118.97 67.7941 118.502C67.4822 118.034 67.0698 117.675 66.5567 117.423C66.0436 117.172 65.4832 117.062 64.8754 117.095C63.9527 117.145 63.2116 117.493 62.6519 118.14L62.1075 117.651C62.4245 117.267 62.8229 116.963 63.3028 116.739C63.7757 116.522 64.2978 116.399 64.869 116.368Z" fill="white"/>
<path d="M57.4627 115.684C58.2213 115.763 58.893 116.002 59.4777 116.402C60.0544 116.808 60.4868 117.325 60.7749 117.952C61.0557 118.579 61.1574 119.26 61.08 119.997C61.0027 120.733 60.7616 121.379 60.3567 121.934C59.9446 122.489 59.4145 122.902 58.7666 123.174C58.1106 123.452 57.4033 123.552 56.6447 123.473C55.8861 123.394 55.2218 123.156 54.6516 122.757C54.0741 122.358 53.6417 121.841 53.3544 121.207C53.0663 120.58 52.961 119.898 53.0383 119.161C53.1157 118.424 53.3608 117.775 53.7738 117.214C54.1859 116.659 54.7159 116.246 55.3639 115.974C56.0045 115.702 56.7041 115.605 57.4627 115.684ZM57.3869 116.406C56.7815 116.343 56.2203 116.421 55.7032 116.64C55.1854 116.866 54.7626 117.206 54.4349 117.658C54.1064 118.118 53.9108 118.647 53.848 119.245C53.7852 119.843 53.8671 120.397 54.0937 120.908C54.3196 121.425 54.6627 121.844 55.123 122.165C55.5826 122.493 56.1151 122.688 56.7206 122.751C57.326 122.814 57.8912 122.733 58.4163 122.507C58.9333 122.288 59.3598 121.949 59.6955 121.49C60.0233 121.037 60.2185 120.512 60.2813 119.914C60.3441 119.316 60.2626 118.758 60.0367 118.241C59.8028 117.73 59.4561 117.31 58.9965 116.982C58.5288 116.661 57.9923 116.469 57.3869 116.406Z" fill="white"/>
<path d="M46.3043 113.849L47.3639 116.691C47.561 116.72 47.7623 116.763 47.9678 116.817L49.9666 117.348L50.5994 114.989L51.3861 115.198L49.3907 122.635L46.6052 121.895C45.6555 121.643 44.9721 121.219 44.555 120.623C44.138 120.026 44.0359 119.332 44.2488 118.538C44.4046 117.957 44.6855 117.505 45.0915 117.18C45.4885 116.861 45.9837 116.685 46.5769 116.653L45.4431 113.62L46.3043 113.849ZM47.8095 117.492C47.0724 117.296 46.4652 117.31 45.988 117.532C45.5107 117.754 45.1932 118.159 45.0355 118.747C44.874 119.349 44.9453 119.861 45.2496 120.284C45.5521 120.713 46.0718 121.025 46.8089 121.221L48.7864 121.746L49.787 118.017L47.8095 117.492Z" fill="white"/>
<path d="M40.7994 119.589L37.9329 118.32C37.1886 117.99 36.5989 117.549 36.1637 116.995C35.7256 116.448 35.4687 115.837 35.3932 115.162C35.3146 114.494 35.4281 113.818 35.7336 113.136C36.0391 112.453 36.4692 111.913 37.024 111.517C37.5758 111.128 38.204 110.909 38.9087 110.86C39.6105 110.818 40.3335 110.962 41.0778 111.291L43.9443 112.561L40.7994 119.589ZM40.8305 111.952C40.2136 111.679 39.6199 111.56 39.0494 111.596C38.4759 111.639 37.9659 111.818 37.5195 112.134C37.07 112.456 36.7194 112.898 36.4678 113.461C36.2163 114.023 36.122 114.575 36.1851 115.116C36.2452 115.664 36.4527 116.161 36.8076 116.607C37.1594 117.059 37.6438 117.422 38.2607 117.695L40.3427 118.617L42.9125 112.874L40.8305 111.952Z" fill="white"/>
<path d="M25.5176 111.681L23.1037 109.681C22.4769 109.162 22.0295 108.577 21.7613 107.926C21.4885 107.281 21.4077 106.623 21.519 105.954C21.6255 105.289 21.9188 104.671 22.399 104.097C22.8792 103.524 23.4403 103.122 24.0823 102.892C24.7197 102.668 25.3842 102.628 26.076 102.773C26.7631 102.923 27.4201 103.258 28.0469 103.777L30.4608 105.777L25.5176 111.681ZM27.6288 104.345C27.1093 103.915 26.57 103.639 26.0109 103.519C25.4471 103.404 24.9073 103.437 24.3914 103.619C23.8708 103.807 23.4128 104.137 23.0173 104.609C22.6219 105.082 22.3808 105.587 22.2941 106.124C22.2026 106.668 22.267 107.202 22.4871 107.727C22.7026 108.258 23.07 108.739 23.5895 109.169L25.3428 110.622L29.3821 105.798L27.6288 104.345Z" fill="white"/>
<path d="M17.8207 104.803L17.2606 104.213L22.8749 98.9429L23.4351 99.5335L17.8207 104.803Z" fill="white"/>
<path d="M19.8817 95.4808C20.2344 95.9312 20.501 96.4204 20.6815 96.9484C20.8576 97.4707 20.9149 97.9365 20.8536 98.3458L20.1613 98.4787C20.2098 98.0886 20.1612 97.6578 20.0155 97.1862C19.864 96.7191 19.6368 96.2921 19.3339 95.9053C18.909 95.3625 18.4917 95.0318 18.0822 94.9131C17.6668 94.799 17.2997 94.8654 16.9809 95.1124C16.7374 95.3011 16.602 95.5266 16.5746 95.789C16.5427 96.0457 16.5727 96.31 16.6646 96.582C16.7507 96.8586 16.8966 97.2233 17.1022 97.6763C17.3434 98.2223 17.5181 98.6714 17.6262 99.0236C17.7286 99.3803 17.7465 99.7422 17.6799 100.109C17.6088 100.47 17.3848 100.797 17.0081 101.089C16.7008 101.327 16.3593 101.462 15.9834 101.493C15.6018 101.529 15.2045 101.438 14.7916 101.22C14.3787 101.002 13.9778 100.645 13.589 100.148C13.3178 99.8015 13.1026 99.4256 12.9435 99.0201C12.774 98.6133 12.6784 98.2236 12.6566 97.8508L13.3392 97.6698C13.37 98.0541 13.4578 98.4221 13.6027 98.7737C13.7418 99.1297 13.9198 99.4464 14.1368 99.7235C14.5527 100.255 14.9713 100.575 15.3924 100.685C15.8033 100.793 16.171 100.722 16.4956 100.47C16.7391 100.282 16.8797 100.057 16.9174 99.7955C16.9448 99.5331 16.9131 99.2607 16.8225 98.9784C16.7216 98.6948 16.5705 98.3295 16.3694 97.8823C16.1315 97.3523 15.9613 96.909 15.859 96.5523C15.7463 96.1943 15.7255 95.8346 15.7966 95.4734C15.8619 95.1167 16.0801 94.7946 16.4511 94.5071C16.7583 94.269 17.105 94.1349 17.4912 94.1047C17.867 94.0733 18.2636 94.1695 18.6811 94.3934C19.0927 94.6218 19.493 94.9842 19.8817 95.4808Z" fill="white"/>
<path d="M15.3373 89.2878C15.7267 89.9436 15.9333 90.6218 15.957 91.3223C15.9769 92.0166 15.8207 92.6655 15.4883 93.2692C15.1458 93.8702 14.6553 94.3583 14.0168 94.7336C13.3782 95.1089 12.7149 95.2988 12.0268 95.3034C11.3286 95.3054 10.6769 95.1271 10.0715 94.7683C9.46619 94.4096 8.96882 93.9023 8.57941 93.2466C8.28736 92.7548 8.09997 92.2525 8.01723 91.7397C7.93449 91.2269 7.96506 90.7327 8.10894 90.2568L8.81864 90.4394C8.60091 91.2648 8.72606 92.0717 9.1941 92.8598C9.50487 93.3832 9.90769 93.7886 10.4025 94.0762C10.8974 94.3638 11.4265 94.5079 11.9898 94.5086C12.5493 94.503 13.0883 94.3478 13.6068 94.0432C14.1252 93.7385 14.5219 93.3437 14.7969 92.8589C15.0682 92.3678 15.1966 91.8372 15.1823 91.2673C15.1679 90.6973 15.0053 90.1506 14.6946 89.6273C14.2228 88.8328 13.5697 88.3363 12.7353 88.1376L12.9171 87.4311C13.4055 87.5354 13.8604 87.7486 14.282 88.0708C14.6935 88.3903 15.0453 88.796 15.3373 89.2878Z" fill="white"/>
<path d="M12.6582 82.4028C12.9408 83.1112 13.0406 83.8168 12.9577 84.5197C12.8653 85.2184 12.6081 85.8402 12.1859 86.3853C11.7611 86.9235 11.2042 87.3286 10.5153 87.6005C9.82633 87.8724 9.14176 87.9574 8.46156 87.8553C7.77865 87.7464 7.1662 87.4678 6.62423 87.0195C6.07272 86.5671 5.6557 85.9866 5.37318 85.2782C5.09065 84.5698 4.99353 83.871 5.08183 83.1818C5.16741 82.4858 5.42467 81.8639 5.85361 81.3162C6.27573 80.7712 6.83126 80.3627 7.52021 80.0907C8.20915 79.8188 8.89849 79.7359 9.58823 79.8421C10.2711 79.951 10.8836 80.2296 11.4256 80.6779C11.9648 81.1194 12.3757 81.6944 12.6582 82.4028ZM11.9829 82.6693C11.7575 82.104 11.4275 81.6429 10.9931 81.2862C10.5519 80.9321 10.0546 80.7145 9.50114 80.6333C8.94089 80.5549 8.38109 80.6261 7.82175 80.8468C7.26241 81.0676 6.80926 81.3963 6.46229 81.8328C6.1085 82.272 5.89642 82.7696 5.82605 83.3256C5.74885 83.8843 5.823 84.4463 6.04848 85.0117C6.27395 85.5771 6.60866 86.0402 7.0526 86.4011C7.487 86.7578 7.98568 86.9788 8.54865 87.0641C9.10208 87.1452 9.65847 87.0754 10.2178 86.8547C10.7771 86.6339 11.2337 86.3039 11.5875 85.8646C11.9318 85.4213 12.1425 84.9203 12.2197 84.3616C12.2873 83.7988 12.2084 83.2347 11.9829 82.6693Z" fill="white"/>
<path d="M9.34835 70.9394L7.31615 73.192C7.38086 73.3804 7.43644 73.5785 7.48287 73.786L7.93439 75.8041L10.3186 75.2762L10.4964 76.0705L2.97847 77.7352L2.34921 74.9227C2.13466 73.9638 2.19566 73.1616 2.5322 72.5163C2.86875 71.8709 3.43798 71.4594 4.23989 71.2819C4.827 71.1519 5.35824 71.192 5.8336 71.4022C6.3002 71.6068 6.68465 71.9648 6.98693 72.4762L9.15381 70.0699L9.34835 70.9394ZM6.81106 73.9573C6.64454 73.213 6.35257 72.6805 5.93515 72.3599C5.51773 72.0392 5.01189 71.9446 4.41762 72.0762C3.80902 72.211 3.38766 72.5108 3.15353 72.9758C2.91224 73.4423 2.87485 74.0477 3.04137 74.792L3.48809 76.7886L7.25778 75.9539L6.81106 73.9573Z" fill="white"/>
<path d="M1.21915 70.1032L1.01262 66.975C0.958992 66.1628 1.0763 65.4349 1.36453 64.7914C1.64545 64.1484 2.06726 63.6358 2.62997 63.2537C3.18537 62.872 3.83627 62.6567 4.58268 62.608C5.32908 62.5592 6.00635 62.6876 6.61448 62.9933C7.21528 63.2995 7.70087 63.7528 8.07123 64.3532C8.43427 64.9542 8.64261 65.6608 8.69623 66.473L8.90276 69.6012L1.21915 70.1032ZM7.99663 66.5628C7.95218 65.8896 7.78157 65.3091 7.4848 64.8215C7.18071 64.3343 6.78532 63.9669 6.29863 63.7195C5.80462 63.4725 5.25027 63.3691 4.63558 63.4092C4.02089 63.4494 3.48855 63.6238 3.03858 63.9325C2.58128 64.2416 2.23758 64.6572 2.00748 65.1793C1.77006 65.7019 1.67357 66.2998 1.71802 66.973L1.86802 69.2451L8.14664 68.8348L7.99663 66.5628Z" fill="white"/>
<path d="M1.52324 52.8771L2.19601 49.8151C2.37069 49.0201 2.68615 48.3532 3.14238 47.8145C3.59145 47.2743 4.1396 46.8982 4.78683 46.6862C5.4269 46.4726 6.11239 46.4453 6.84331 46.6043C7.57423 46.7632 8.18934 47.0733 8.68865 47.5346C9.18079 47.9944 9.52121 48.5637 9.7099 49.2426C9.89144 49.92 9.89486 50.6562 9.72017 51.4512L9.04741 54.5132L1.52324 52.8771ZM9.02281 51.3446C9.16759 50.6857 9.16529 50.0811 9.01591 49.5308C8.85936 48.9789 8.58167 48.517 8.18286 48.1451C7.77688 47.7716 7.27292 47.5195 6.67099 47.3886C6.06906 47.2577 5.50888 47.2785 4.99046 47.4509C4.46488 47.6218 4.01881 47.9263 3.65225 48.3644C3.27853 48.801 3.01927 49.3487 2.87449 50.0077L2.38585 52.2316L8.53417 53.5686L9.02281 51.3446Z" fill="white"/>
<path d="M3.59482 42.2523L3.86477 41.4844L11.1372 44.0145L10.8673 44.7824L3.59482 42.2523Z" fill="white"/>
<path d="M13.5784 39.8149C13.3389 40.3343 13.0253 40.7958 12.6374 41.1992C12.2527 41.5959 11.8637 41.8618 11.4704 41.9967L11.0335 41.4468C11.4037 41.3094 11.7655 41.0674 12.1191 40.7209C12.4659 40.3713 12.7422 39.9734 12.9479 39.5272C13.2365 38.9012 13.3395 38.3799 13.2569 37.9634C13.1677 37.5439 12.9396 37.2504 12.5727 37.083C12.2924 36.9552 12.029 36.9398 11.7824 37.0368C11.5389 37.1273 11.3169 37.2759 11.1166 37.4827C10.9096 37.6865 10.6514 37.9838 10.3421 38.3747C9.9661 38.8399 9.64592 39.2017 9.38154 39.4599C9.11049 39.7151 8.79601 39.8981 8.4381 40.0088C8.08326 40.1129 7.68901 40.0661 7.25534 39.8682C6.90173 39.7069 6.62446 39.4676 6.42353 39.1502C6.21593 38.8298 6.11443 38.4369 6.11902 37.9715C6.12361 37.5061 6.25791 36.987 6.52193 36.4143C6.70613 36.0147 6.94243 35.651 7.23084 35.3231C7.51565 34.9855 7.81926 34.721 8.14169 34.5296L8.61702 35.0487C8.28846 35.2535 8.00072 35.501 7.75382 35.7914C7.50024 36.0787 7.29978 36.3822 7.15242 36.7019C6.86998 37.3146 6.77671 37.8323 6.87261 38.2548C6.9649 38.6677 7.19786 38.9594 7.57149 39.1298C7.8517 39.2577 8.11692 39.2779 8.36714 39.1906C8.61375 39.0935 8.84209 38.9397 9.05216 38.7293C9.25862 38.5091 9.515 38.2069 9.82129 37.8228C10.1844 37.3678 10.5016 37.0127 10.7726 36.7575C11.0401 36.4926 11.3512 36.3081 11.706 36.204C12.0542 36.0969 12.4418 36.1407 12.8688 36.3355C13.2224 36.4968 13.5015 36.741 13.706 37.0681C13.9069 37.3854 14.0036 37.7801 13.9959 38.2522C13.9816 38.7212 13.8424 39.2421 13.5784 39.8149Z" fill="white"/>
<path d="M16.9948 33.2159C16.5862 33.8599 16.0741 34.3523 15.4584 34.6931C14.8467 35.0276 14.195 35.1856 13.5033 35.167C12.8094 35.1383 12.1488 34.927 11.5216 34.5332C10.8943 34.1393 10.4214 33.639 10.103 33.0321C9.7823 32.4151 9.6441 31.7568 9.6884 31.0573C9.7327 30.3578 9.95912 29.686 10.3677 29.042C10.6741 28.559 11.0377 28.1639 11.4584 27.8565C11.8792 27.5492 12.3352 27.3506 12.8264 27.2608L12.9873 27.9722C12.1497 28.1564 11.4854 28.6354 10.9943 29.4095C10.6683 29.9234 10.4897 30.465 10.4585 31.0343C10.4274 31.6036 10.5402 32.1376 10.7969 32.6365C11.0575 33.1292 11.4425 33.5354 11.9517 33.8551C12.461 34.1749 12.9952 34.3458 13.5544 34.3678C14.1175 34.3837 14.6507 34.2552 15.1538 33.9823C15.6569 33.7094 16.0715 33.3159 16.3976 32.802C16.8926 32.0217 17.0383 31.2171 16.8348 30.3879L17.5497 30.2263C17.6795 30.7061 17.6966 31.2061 17.6011 31.7263C17.5033 32.2363 17.3012 32.7329 16.9948 33.2159Z" fill="white"/>
<path d="M21.6581 26.9078C21.1558 27.4817 20.5719 27.8928 19.9064 28.141C19.2402 28.3789 18.5667 28.4358 17.8859 28.3118C17.2099 28.1823 16.592 27.8751 16.0321 27.3902C15.4722 26.9053 15.0813 26.3387 14.8593 25.6905C14.6421 25.0367 14.6089 24.3676 14.7595 23.6832C14.9095 22.9885 15.2356 22.3541 15.7379 21.7802C16.2402 21.2063 16.8192 20.8007 17.4751 20.5636C18.1357 20.3209 18.8092 20.2639 19.4956 20.3927C20.1764 20.5167 20.7968 20.8212 21.3566 21.3061C21.9165 21.791 22.3078 22.3627 22.5305 23.0213C22.7477 23.6751 22.781 24.3442 22.6303 25.0286C22.4844 25.7074 22.1604 26.3338 21.6581 26.9078ZM21.1093 26.4325C21.5102 25.9744 21.7698 25.4717 21.8883 24.9243C22.0012 24.3722 21.9665 23.8328 21.7842 23.3062C21.5963 22.7748 21.2751 22.3123 20.8206 21.9186C20.366 21.5249 19.8641 21.2745 19.3147 21.1673C18.7598 21.0554 18.218 21.0954 17.6893 21.2875C17.1551 21.4748 16.6875 21.7975 16.2867 22.2555C15.8858 22.7136 15.6265 23.2214 15.5088 23.7791C15.3903 24.3265 15.4226 24.8686 15.6056 25.4055C15.788 25.9321 16.1064 26.3922 16.5609 26.7859C17.0155 27.1796 17.5202 27.4324 18.0751 27.5444C18.6293 27.6461 19.1736 27.6032 19.7078 27.4159C20.2413 27.2183 20.7085 26.8905 21.1093 26.4325Z" fill="white"/>
<path d="M29.4659 19.2716L26.5163 18.5184C26.379 18.6626 26.2289 18.8031 26.0662 18.94L24.4835 20.271L26.0648 22.1319L25.4418 22.6558L20.4557 16.7882L22.6614 14.9332C23.4135 14.3007 24.1548 13.984 24.8852 13.9829C25.6157 13.9818 26.2468 14.2942 26.7787 14.9201C27.1681 15.3783 27.3802 15.8658 27.4152 16.3826C27.451 16.8891 27.3122 17.3939 26.9987 17.897L30.1478 18.6981L29.4659 19.2716ZM25.6006 18.426C26.1843 17.9352 26.5213 17.4314 26.6115 16.9147C26.7018 16.3981 26.5498 15.9078 26.1557 15.444C25.7521 14.969 25.2891 14.7356 24.7667 14.7437C24.2396 14.7463 23.6841 14.993 23.1005 15.4838L21.5346 16.8007L24.0347 19.7429L25.6006 18.426Z" fill="white"/>
<path d="M27.2769 11.1961L29.962 9.57804C30.6592 9.15791 31.3606 8.92791 32.0661 8.88806C32.7678 8.84194 33.4188 8.98047 34.0191 9.30367C34.6156 9.6206 35.1084 10.0985 35.4974 10.7374C35.8864 11.3763 36.0858 12.0352 36.0957 12.7142C36.1018 13.3869 35.9237 14.0251 35.5614 14.6287C35.1953 15.226 34.6637 15.7347 33.9665 16.1548L31.2813 17.7729L27.2769 11.1961ZM33.5627 15.5762C34.1405 15.228 34.5775 14.8106 34.8736 14.3239C35.1659 13.831 35.3094 13.3122 35.304 12.7675C35.2947 12.2166 35.13 11.678 34.8096 11.1519C34.4892 10.6257 34.0877 10.2341 33.6049 9.97707C33.1183 9.71377 32.5897 9.59995 32.019 9.63562C31.4445 9.66503 30.8683 9.85384 30.2905 10.2021L28.3402 11.3773L31.6124 16.7515L33.5627 15.5762Z" fill="white"/>
<path d="M41.8291 3.81297L44.853 2.98551C45.6381 2.77066 46.3753 2.74001 47.0644 2.89355C47.7517 3.04003 48.3397 3.3505 48.8284 3.82498C49.3153 4.29239 49.6584 4.88657 49.8577 5.60752C50.0571 6.32847 50.0687 7.01715 49.8926 7.67357C49.7145 8.32293 49.3689 8.8889 48.8556 9.37149C48.3403 9.84701 47.6902 10.1922 46.905 10.407L43.8812 11.2345L41.8291 3.81297ZM46.675 9.74012C47.3257 9.56204 47.8599 9.279 48.2776 8.891C48.6934 8.49592 48.9731 8.03543 49.1168 7.50952C49.2586 6.97654 49.2474 6.41318 49.0832 5.81946C48.919 5.22574 48.64 4.73947 48.2462 4.36067C47.8503 3.97479 47.3732 3.7214 46.8148 3.60051C46.2544 3.47254 45.6489 3.49759 44.9981 3.67567L42.8019 4.27666L44.4787 10.3411L46.675 9.74012Z" fill="white"/>
<path d="M52.5845 1.03846L53.3899 0.92036L54.5185 8.5372L53.7131 8.6553L52.5845 1.03846Z" fill="white"/>
<path d="M59.8868 7.83603C59.3155 7.86456 58.7616 7.80045 58.225 7.64369C57.6958 7.48656 57.2807 7.26499 56.9799 6.97897L57.2669 6.33686C57.5593 6.60127 57.9406 6.80984 58.4109 6.96257C58.8808 7.10797 59.3612 7.16842 59.8519 7.14391C60.5404 7.10952 61.0504 6.95923 61.3821 6.69302C61.7134 6.41948 61.8689 6.0813 61.8486 5.67848C61.833 5.37087 61.7254 5.13028 61.5258 4.95669C61.3334 4.78273 61.0993 4.65492 60.8235 4.57324C60.5474 4.48424 60.1646 4.39322 59.6753 4.30018C59.0893 4.1826 58.6209 4.06649 58.27 3.95185C57.9187 3.82989 57.6116 3.63597 57.3485 3.37009C57.0927 3.10385 56.9529 2.7327 56.9288 2.25664C56.9092 1.86847 56.994 1.5118 57.1832 1.18662C57.372 0.85412 57.674 0.582049 58.0892 0.370408C58.5044 0.158766 59.027 0.0372141 59.6568 0.00575339C60.0963 -0.0161959 60.5279 0.0246577 60.9517 0.128314C61.3824 0.22428 61.7569 0.37078 62.0753 0.567811L61.8333 1.2297C61.5003 1.0334 61.1481 0.893132 60.7768 0.808887C60.405 0.717318 60.0433 0.680313 59.6918 0.697873C59.0179 0.731528 58.5156 0.888785 58.1846 1.16964C57.8607 1.44281 57.709 1.78447 57.7297 2.19461C57.7453 2.50222 57.8494 2.74666 58.0421 2.92794C58.2418 3.10153 58.4833 3.23264 58.7668 3.32128C59.0573 3.40222 59.4435 3.4894 59.9255 3.58281C60.4965 3.69379 60.9576 3.81027 61.3089 3.93223C61.6671 4.0465 61.9741 4.23676 62.2298 4.503C62.4852 4.76192 62.6247 5.12574 62.6483 5.59448C62.6679 5.98265 62.5797 6.34317 62.3835 6.67604C62.1943 7.00121 61.8885 7.26981 61.466 7.48181C61.0431 7.6865 60.5167 7.80457 59.8868 7.83603Z" fill="white"/>
<path d="M67.7711 8.35405C67.0109 8.29266 66.3375 8.06907 65.751 7.68327C65.1717 7.29806 64.7308 6.79527 64.4282 6.1749C64.1336 5.54782 64.0164 4.86517 64.0766 4.12696C64.1369 3.38874 64.3629 2.73749 64.7548 2.1732C65.1545 1.60219 65.6751 1.17337 66.3166 0.886743C66.958 0.600111 67.6588 0.48749 68.419 0.54888C68.9892 0.594922 69.5077 0.73244 69.9746 0.961435C70.4415 1.19043 70.8282 1.50123 71.1346 1.89383L70.5773 2.36751C70.0274 1.71245 69.2956 1.34803 68.3819 1.27425C67.7752 1.22525 67.212 1.31956 66.6923 1.55716C66.1726 1.79477 65.7505 2.14326 65.4261 2.60263C65.1089 3.0626 64.9259 3.59225 64.877 4.19159C64.8281 4.79093 64.9229 5.34302 65.1613 5.84785C65.407 6.35326 65.767 6.76491 66.2414 7.0828C66.7158 7.40068 67.2563 7.58412 67.863 7.63311C68.784 7.70749 69.5656 7.4616 70.2078 6.89546L70.6811 7.45236C70.315 7.79066 69.8791 8.0387 69.3732 8.1965C68.8753 8.34758 68.3412 8.40009 67.7711 8.35405Z" fill="white"/>
<path d="M74.1539 9.80068C73.4118 9.62452 72.7769 9.30045 72.2491 8.82845C71.7301 8.35101 71.3687 7.78284 71.1648 7.12392C70.968 6.46669 70.956 5.77796 71.1287 5.05773C71.3015 4.33749 71.6248 3.72837 72.0987 3.23036C72.5797 2.73404 73.1593 2.39301 73.8373 2.20726C74.5242 2.01607 75.2386 2.00855 75.9807 2.1847C76.7227 2.36086 77.3505 2.68324 77.864 3.15185C78.3847 3.62216 78.7461 4.19033 78.9483 4.85638C79.1523 5.5153 79.1679 6.20488 78.9951 6.92511C78.8223 7.64535 78.4946 8.25719 78.0119 8.76064C77.5308 9.25695 76.9513 9.59799 76.2733 9.78374C75.6024 9.97118 74.8959 9.97683 74.1539 9.80068ZM74.3232 9.0947C74.9154 9.23528 75.4822 9.23039 76.0235 9.08003C76.5666 8.92253 77.0301 8.64064 77.4141 8.23435C77.7999 7.82093 78.0629 7.32185 78.2031 6.7371C78.3434 6.15236 78.3344 5.59248 78.1761 5.05746C78.0196 4.51532 77.734 4.05558 77.3192 3.67825C76.9062 3.29379 76.4035 3.03126 75.8113 2.89068C75.2191 2.7501 74.6479 2.75771 74.0977 2.91351C73.5564 3.06388 73.0893 3.34492 72.6964 3.75665C72.3124 4.16293 72.0503 4.65845 71.91 5.2432C71.7697 5.82794 71.7779 6.39139 71.9344 6.93353C72.0998 7.47024 72.389 7.93083 72.802 8.31529C73.2239 8.69431 73.731 8.95412 74.3232 9.0947Z" fill="white"/>
<path d="M85.184 12.6459L84.508 9.69049C84.3165 9.63537 84.1224 9.5673 83.9258 9.48628L82.0137 8.69844L81.0751 10.9529L80.3225 10.6428L83.2821 3.53423L85.9467 4.63218C86.8553 5.00654 87.477 5.51652 87.8119 6.16213C88.1469 6.80774 88.1565 7.50966 87.8408 8.26791C87.6097 8.82305 87.2714 9.23489 86.826 9.50345C86.3901 9.76803 85.8759 9.87738 85.2834 9.83151L86.0078 12.9853L85.184 12.6459ZM84.1718 8.83813C84.877 9.12868 85.4808 9.19508 85.9834 9.03731C86.486 8.87955 86.8542 8.51971 87.0882 7.9578C87.3278 7.38235 87.3245 6.86547 87.0784 6.40716C86.8352 5.94208 86.361 5.56427 85.6558 5.27372L83.7641 4.49426L82.2801 8.05867L84.1718 8.83813Z" fill="white"/>
<path d="M91.875 7.52025L94.5542 9.14815C95.2498 9.57084 95.7777 10.0846 96.1377 10.6895C96.5016 11.2882 96.6774 11.927 96.665 12.6059C96.6564 13.2786 96.4565 13.9337 96.0651 14.5711C95.6738 15.2086 95.1773 15.6878 94.5758 16.0088C93.9782 16.3235 93.3266 16.4597 92.6213 16.4172C91.9197 16.3685 91.2211 16.1328 90.5255 15.7101L87.8463 14.0822L91.875 7.52025ZM90.8562 15.0873C91.4328 15.4377 92.0064 15.6317 92.5769 15.6695C93.1513 15.701 93.6804 15.5891 94.1641 15.3339C94.6516 15.0723 95.0566 14.6791 95.3789 14.1542C95.7012 13.6292 95.866 13.0944 95.8734 12.5497C95.8847 11.9988 95.7431 11.4795 95.4488 10.9917C95.1583 10.4977 94.7248 10.0756 94.1482 9.72526L92.2023 8.54289L88.9103 13.905L90.8562 15.0873Z" fill="white"/>
<path d="M105.166 17.3236L107.298 19.6216C107.852 20.2183 108.219 20.8567 108.4 21.5369C108.586 22.2121 108.58 22.8744 108.383 23.5238C108.191 24.1684 107.819 24.7436 107.268 25.2495C106.717 25.7554 106.108 26.0805 105.442 26.2246C104.781 26.3638 104.117 26.3166 103.449 26.0829C102.788 25.8442 102.18 25.4265 101.626 24.8298L99.4941 22.5317L105.166 17.3236ZM102.115 24.3214C102.574 24.8159 103.073 25.1594 103.611 25.3517C104.155 25.5391 104.695 25.5762 105.23 25.4631C105.771 25.3449 106.268 25.0775 106.722 24.6609C107.175 24.2442 107.48 23.775 107.637 23.2533C107.798 22.7266 107.804 22.1885 107.654 21.6391C107.51 21.0846 107.208 20.5601 106.749 20.0656L105.201 18.3964L100.566 22.6522L102.115 24.3214Z" fill="white"/>
<path d="M111.875 25.1569L112.353 25.8157L106.099 30.3071L105.621 29.6482L111.875 25.1569Z" fill="white"/>
<path d="M109.023 34.7544C108.733 34.2615 108.533 33.7414 108.424 33.1941C108.318 32.6531 108.322 32.1837 108.437 31.7859L109.14 31.7451C109.041 32.1255 109.033 32.5591 109.115 33.0458C109.204 33.5289 109.373 33.9821 109.622 34.4055C109.972 34.9995 110.342 35.3822 110.732 35.5537C111.129 35.7214 111.501 35.7038 111.85 35.5007C112.116 35.3456 112.28 35.1398 112.341 34.8832C112.407 34.6329 112.412 34.3668 112.356 34.085C112.307 33.7995 112.211 33.4187 112.067 32.9426C111.899 32.3695 111.785 31.9012 111.725 31.5378C111.67 31.1706 111.7 30.8095 111.814 30.4543C111.932 30.1054 112.197 29.811 112.609 29.571C112.945 29.3753 113.301 29.2866 113.678 29.3047C114.061 29.3192 114.442 29.4617 114.823 29.7322C115.203 30.0027 115.554 30.4097 115.874 30.9532C116.097 31.3323 116.261 31.7334 116.365 32.1563C116.48 32.5819 116.523 32.981 116.496 33.3535L115.795 33.4433C115.815 33.0581 115.777 32.6817 115.679 32.3141C115.588 31.9427 115.454 31.6054 115.275 31.3021C114.933 30.7207 114.56 30.348 114.157 30.1839C113.764 30.0225 113.39 30.0451 113.035 30.2519C112.769 30.407 112.6 30.6115 112.529 30.8655C112.467 31.1221 112.463 31.3963 112.515 31.6881C112.578 31.9826 112.68 32.3647 112.82 32.8345C112.986 33.3913 113.097 33.8532 113.151 34.2204C113.216 34.5902 113.189 34.9495 113.071 35.2983C112.959 35.6435 112.701 35.9342 112.295 36.1705C111.959 36.3662 111.598 36.4536 111.211 36.4328C110.835 36.4147 110.454 36.2672 110.07 35.9903C109.692 35.7098 109.343 35.2978 109.023 34.7544Z" fill="white"/>
<path d="M112.528 41.8693C112.229 41.1675 112.115 40.4677 112.185 39.77C112.258 39.079 112.499 38.4563 112.909 37.902C113.328 37.3516 113.879 36.9328 114.562 36.6455C115.245 36.3583 115.927 36.258 116.609 36.3449C117.301 36.4356 117.923 36.699 118.475 37.135C119.027 37.5711 119.452 38.14 119.751 38.8419C119.975 39.3683 120.093 39.8912 120.107 40.4105C120.121 40.9299 120.024 41.4159 119.819 41.8686L119.14 41.5933C119.465 40.8038 119.449 39.9873 119.09 39.1437C118.852 38.5836 118.507 38.1281 118.055 37.7773C117.603 37.4264 117.098 37.2133 116.54 37.1378C115.985 37.069 115.43 37.1513 114.876 37.3845C114.322 37.6177 113.876 37.9564 113.539 38.4006C113.205 38.8515 113.007 39.3605 112.945 39.9274C112.883 40.4944 112.972 41.058 113.21 41.6181C113.571 42.4685 114.152 43.0475 114.952 43.3552L114.678 44.0315C114.208 43.8633 113.786 43.5915 113.411 43.2161C113.046 42.8447 112.751 42.3957 112.528 41.8693Z" fill="white"/>
<path d="M115.369 48.6015C115.183 47.862 115.177 47.1492 115.352 46.4631C115.536 45.7824 115.873 45.1995 116.363 44.7144C116.855 44.2364 117.461 43.9078 118.179 43.7286C118.898 43.5493 119.588 43.555 120.248 43.7454C120.91 43.943 121.481 44.2996 121.958 44.8153C122.445 45.3363 122.782 45.9666 122.968 46.7062C123.154 47.4457 123.158 48.1514 122.98 48.8233C122.803 49.5022 122.466 50.0851 121.969 50.572C121.478 51.057 120.874 51.3892 120.155 51.5685C119.436 51.7477 118.742 51.7394 118.073 51.5436C117.41 51.346 116.84 50.9894 116.363 50.4737C115.886 49.9651 115.555 49.3411 115.369 48.6015ZM116.073 48.4258C116.222 49.0161 116.488 49.5166 116.871 49.9273C117.262 50.3363 117.726 50.6174 118.264 50.7705C118.809 50.9218 119.373 50.9247 119.956 50.7791C120.54 50.6336 121.032 50.3672 121.434 49.9798C121.842 49.5907 122.118 49.1251 122.261 48.583C122.412 48.0391 122.412 47.4721 122.264 46.8819C122.115 46.2916 121.844 45.7885 121.452 45.3724C121.069 44.9616 120.604 44.677 120.057 44.5186C119.52 44.3655 118.959 44.3617 118.375 44.5072C117.792 44.6528 117.296 44.9201 116.887 45.3092C116.488 45.7037 116.213 46.1728 116.062 46.7167C115.921 47.2659 115.925 47.8356 116.073 48.4258Z" fill="white"/>
<path d="M116.625 59.9866L118.934 58.0155C118.895 57.8202 118.865 57.6167 118.846 57.4048L118.662 55.3451L116.23 55.5603L116.157 54.7495L123.827 54.0709L124.084 56.9415C124.171 57.9202 124.006 58.7078 123.588 59.3043C123.17 59.9008 122.552 60.2352 121.734 60.3076C121.135 60.3606 120.614 60.2521 120.17 59.9822C119.734 59.7189 119.4 59.3142 119.167 58.7679L116.705 60.8741L116.625 59.9866ZM119.535 57.3219C119.603 58.0815 119.823 58.6473 120.194 59.0193C120.566 59.3913 121.055 59.5505 121.662 59.4969C122.283 59.4419 122.74 59.199 123.032 58.7682C123.332 58.3368 123.449 57.7412 123.381 56.9816L123.198 54.9437L119.353 55.284L119.535 57.3219Z" fill="white"/>
</svg>
